<svg width="136" height="40" viewBox="0 0 136 40" fill="none" xmlns="http://www.w3.org/2000/svg">
<path d="M8.8326 18.3172C11.28 14.9149 13.9206 13.2138 16.7543 13.2138C19.3489 13.2138 21.6123 14.3264 23.5444 16.5517C25.4765 18.7586 26.4426 21.7839 26.4426 25.6276C26.4426 30.1149 24.9521 33.7287 21.9711 36.469C19.4133 38.823 16.5611 40 13.4145 40C11.9424 40 10.4427 39.7333 8.91541 39.2C7.40651 38.6667 5.8608 37.8667 4.27829 36.8V10.6207C4.27829 7.75172 4.20469 5.98621 4.05748 5.32414C3.92867 4.66207 3.71705 4.21149 3.42263 3.97241C3.12821 3.73333 2.76019 3.61379 2.31856 3.61379C1.80332 3.61379 1.15928 3.76092 0.386426 4.05517L0 3.08966L7.59052 0H8.8326V18.3172ZM8.8326 20.0828V35.2C9.77107 36.1195 10.7371 36.8184 11.7308 37.2966C12.7429 37.7563 13.7733 37.9862 14.8222 37.9862C16.4967 37.9862 18.0516 37.0667 19.4869 35.2276C20.9406 33.3885 21.6675 30.7126 21.6675 27.2C21.6675 23.9632 20.9406 21.4805 19.4869 19.7517C18.0516 18.0046 16.4139 17.131 14.5738 17.131C13.5985 17.131 12.6233 17.3793 11.648 17.8759C10.9119 18.2437 9.97348 18.9793 8.8326 20.0828Z" fill="#CA9A39"/>
<path d="M45.3786 13.2138V21.8207H44.4677C43.7685 19.1172 42.8668 17.2782 41.7628 16.3034C40.6771 15.3287 39.2878 14.8414 37.5949 14.8414C36.3068 14.8414 35.2671 15.1816 34.4759 15.8621C33.6846 16.5425 33.289 17.2966 33.289 18.1241C33.289 19.154 33.5834 20.0368 34.1722 20.7724C34.7427 21.5264 35.902 22.3264 37.6501 23.1724L41.68 25.131C45.4154 26.9517 47.2831 29.3517 47.2831 32.331C47.2831 34.6299 46.4091 36.4874 44.661 37.9035C42.9312 39.3012 40.9899 40 38.837 40C37.2913 40 35.5247 39.7241 33.5374 39.1724C32.9302 38.9885 32.4333 38.8966 32.0469 38.8966C31.6237 38.8966 31.2924 39.1356 31.0532 39.6138H30.1424V30.5931H31.0532C31.5685 33.1678 32.5529 35.108 34.0066 36.4138C35.4603 37.7195 37.0888 38.3724 38.8922 38.3724C40.1618 38.3724 41.1923 38.0046 41.9836 37.269C42.7932 36.5149 43.1981 35.6138 43.1981 34.5655C43.1981 33.2966 42.7472 32.2299 41.8456 31.3655C40.9623 30.5012 39.1866 29.4069 36.5184 28.0828C33.8502 26.7586 32.1021 25.5632 31.274 24.4966C30.446 23.4483 30.032 22.1241 30.032 20.5241C30.032 18.446 30.7404 16.708 32.1573 15.3103C33.5926 13.9126 35.4419 13.2138 37.7053 13.2138C38.6989 13.2138 39.9042 13.4253 41.3211 13.8483C42.2596 14.1241 42.8852 14.2621 43.1981 14.2621C43.4925 14.2621 43.7225 14.1977 43.8881 14.069C44.0537 13.9402 44.2469 13.6552 44.4677 13.2138H45.3786Z" fill="#CA9A39"/>
<path d="M57.2761 5.65517V13.9586H63.1829V15.8897H57.2761V32.2759C57.2761 33.9126 57.5061 35.0161 57.9662 35.5862C58.4446 36.1563 59.0518 36.4414 59.7879 36.4414C60.3951 36.4414 60.984 36.2575 61.5544 35.8897C62.1249 35.5034 62.5665 34.9425 62.8793 34.2069H63.9558C63.3117 36.0092 62.4009 37.3701 61.2232 38.2897C60.0455 39.1908 58.831 39.6414 57.5797 39.6414C56.7333 39.6414 55.9052 39.4115 55.0956 38.9517C54.2859 38.4736 53.6879 37.8023 53.3014 36.9379C52.915 36.0552 52.7218 34.7034 52.7218 32.8828V15.8897H48.7195V14.9793C49.7316 14.5747 50.7621 13.8943 51.8109 12.9379C52.8782 11.9632 53.8259 10.8138 54.6539 9.48966C55.0772 8.7908 55.666 7.51264 56.4205 5.65517H57.2761Z" fill="#CA9A39"/>
<path d="M86.7008 13.9586V29.269C86.7008 32.1931 86.7652 33.9862 86.894 34.6483C87.0413 35.292 87.2621 35.7425 87.5565 36C87.8693 36.2575 88.2281 36.3862 88.633 36.3862C89.2034 36.3862 89.8474 36.2299 90.5651 35.9172L90.9515 36.8828L83.3886 40H82.1465V34.6483C79.9752 37.0023 78.3191 38.4828 77.1782 39.0897C76.0373 39.6966 74.832 40 73.5623 40C72.1454 40 70.9126 39.5954 69.8637 38.7862C68.8332 37.9586 68.1156 36.9011 67.7107 35.6138C67.3059 34.3264 67.1035 32.5057 67.1035 30.1517V18.869C67.1035 17.6736 66.9747 16.846 66.7171 16.3862C66.4594 15.9264 66.073 15.577 65.5578 15.3379C65.061 15.0805 64.1501 14.9609 62.8252 14.9793V13.9586H71.6854V30.869C71.6854 33.223 72.0902 34.7678 72.8999 35.5034C73.7279 36.2391 74.7216 36.6069 75.8809 36.6069C76.6721 36.6069 77.5646 36.3586 78.5583 35.8621C79.5703 35.3655 80.7664 34.4184 82.1465 33.0207V18.7034C82.1465 17.269 81.8797 16.3034 81.3461 15.8069C80.8308 15.292 79.7452 15.0161 78.089 14.9793V13.9586H86.7008Z" fill="#CA9A39"/>
<path d="M99.0676 13.2138V18.8966C101.184 15.108 103.355 13.2138 105.582 13.2138C106.594 13.2138 107.431 13.5264 108.093 14.1517C108.756 14.7586 109.087 15.4667 109.087 16.2759C109.087 16.9931 108.848 17.6 108.369 18.0966C107.891 18.5931 107.321 18.8414 106.658 18.8414C106.014 18.8414 105.287 18.5287 104.478 17.9034C103.686 17.2598 103.097 16.9379 102.711 16.9379C102.38 16.9379 102.021 17.1218 101.635 17.4897C100.807 18.2437 99.9508 19.4851 99.0676 21.2138V33.3241C99.0676 34.7218 99.2424 35.7793 99.592 36.4966C99.8312 36.9931 100.254 37.4069 100.862 37.7379C101.469 38.069 102.343 38.2345 103.484 38.2345V39.2276H90.5386V38.2345C91.8267 38.2345 92.7836 38.0322 93.4092 37.6276C93.8692 37.3333 94.1913 36.8644 94.3753 36.2207C94.4673 35.908 94.5133 35.0161 94.5133 33.5448V23.7517C94.5133 20.8092 94.4489 19.0621 94.3201 18.5103C94.2096 17.9402 93.9888 17.5264 93.6576 17.269C93.3448 17.0115 92.9492 16.8828 92.4707 16.8828C91.9003 16.8828 91.2562 17.0207 90.5386 17.2966L90.2626 16.3034L97.9083 13.2138H99.0676Z" fill="#CA9A39"/>
<path d="M127.223 36.3862C125.99 37.6736 124.784 38.6023 123.607 39.1724C122.429 39.7241 121.159 40 119.798 40C117.038 40 114.627 38.8506 112.566 36.5517C110.505 34.2345 109.475 31.2644 109.475 27.6414C109.475 24.0184 110.615 20.708 112.897 17.7103C115.179 14.6943 118.114 13.1862 121.702 13.1862C123.929 13.1862 125.769 13.8943 127.223 15.3103V10.6483C127.223 7.76092 127.149 5.98621 127.002 5.32414C126.873 4.66207 126.661 4.21149 126.367 3.97241C126.073 3.73333 125.704 3.61379 125.263 3.61379C124.784 3.61379 124.15 3.76092 123.358 4.05517L123 3.08966L130.535 0H131.777V29.2138C131.777 32.1747 131.841 33.9862 131.97 34.6483C132.117 35.292 132.338 35.7425 132.633 36C132.945 36.2575 133.304 36.3862 133.709 36.3862C134.206 36.3862 134.868 36.2299 135.696 35.9172L136 36.8828L128.492 40H127.223V36.3862ZM127.223 34.4552V21.4345C127.112 20.1839 126.781 19.0437 126.229 18.0138C125.677 16.9839 124.941 16.2115 124.021 15.6966C123.119 15.1632 122.236 14.8966 121.371 14.8966C119.752 14.8966 118.307 15.623 117.038 17.0759C115.363 18.9885 114.526 21.7839 114.526 25.4621C114.526 29.177 115.335 32.0276 116.955 34.0138C118.574 35.9816 120.377 36.9655 122.365 36.9655C124.039 36.9655 125.659 36.1287 127.223 34.4552Z" fill="#CA9A39"/>
</svg>
