<svg width="45" height="45" viewBox="0 0 45 45" fill="none" xmlns="http://www.w3.org/2000/svg">
<path fill-rule="evenodd" clip-rule="evenodd" d="M20.3577 28.5905C18.9657 34.2165 15.8917 36.9425 10.7297 36.9425C8.23571 36.9425 6.08971 36.0725 4.58171 34.5645C3.18971 33.1725 2.43571 31.2585 2.43571 28.9965C2.43571 26.5605 3.13171 24.7045 4.52371 23.3125C6.20571 21.6305 8.81571 20.7025 12.2377 20.5285L20.0677 20.0645V17.8605C20.0677 14.5545 18.0377 12.4085 13.7457 12.4085C7.59771 12.4085 7.53971 17.1065 7.53971 17.6865V17.9765H1.85571V17.6865C1.85571 16.9905 1.91371 7.47852 13.8037 7.47852C15.7708 7.47852 17.3993 7.72378 18.7561 8.19408L18.7457 8.13052L25.3957 8.29052L23.9457 15.8305H24.8157C26.4977 10.3205 29.6877 7.47852 34.2697 7.47852C40.8817 7.47852 44.3617 11.5385 44.3617 19.1945V36.1305H38.8517V19.7745C38.8517 15.0185 36.7637 12.5825 32.7617 12.5825C28.9054 12.5825 26.2712 15.1111 25.5777 19.3062V36.1305H25.3957L20.2457 36.1305L19.8937 36.1305L21.2277 28.5905H20.3577ZM9.04771 26.5605C8.40971 27.1985 8.11971 27.9525 8.11971 28.9385C8.11971 29.8665 8.40971 30.5625 8.98971 31.1425C9.68571 31.8385 10.7297 32.1865 12.0637 32.1865C17.3997 32.1865 19.8937 27.4885 20.0677 24.4145L13.0497 25.1105C11.1937 25.2845 9.85971 25.7485 9.04771 26.5605Z" fill="#CA9A39"/>
</svg>
